:SAMPLES-PER-SECOND 30
:FULLY-SPECIFIED
:DEGREES
41
root  71.035 37.8613 3.78347 -44.5286 -79.2747 41.4685
RightUpLeg  -1.63227 4.68147 -14.151
RightLeg  50.722 0.343099 0.110591
RightFoot  1.33624 -0.856237 6.9642
RightToes  -1.74624e-010 0 -3.6325e-017
Spine  7.88377 1.24485 -3.37394
Spine1  4.85171 2.08831 -6.72909
HEad  -7.19147 -4.67695 -2.62055
LeftShoulder1  -0.658585 5.16566 -33.4311
LeftArm  -5.00778 5.65986 -39.9681
LeftForeArm  37.6417 -5.21114 -8.5125
LeftHand  -0.0467912 8.27496 0.175365
RightShoulder  -1.12932 -6.49479 31.2242
RightArm  21.8305 -3.46371 46.3836
RightForeArm  19.4747 11.7412 7.89335
RightHand  0.0914901 3.55246 1.73571
LeftUpLeg  -13.3966 7.77442 -8.78064
LeftLeg  21.7621 3.05754 1.56934
LeftFoot  -7.09516 -0.0700312 3.04189
LeftToes  -3.96543e-010 8.93632e-011 -2.58531e-011
42
root  70.2023 37.9407 4.12785 -45.2699 -79.0519 41.6909
RightUpLeg  -5.35062 5.25139 -14.2509
RightLeg  56.1343 1.60879 2.1732
RightFoot  0.793066 -0.848692 8.0612
RightToes  -1.74624e-010 0 -3.6325e-017
Spine  8.88092 0.879707 -5.04027
Spine1  3.62722 1.19952 -6.06437
HEad  -6.27859 -4.20326 -2.97036
LeftShoulder1  -0.436058 4.6159 -33.0861
LeftArm  -3.78499 3.34663 -40.077
LeftForeArm  35.6905 -6.90057 -8.93882
LeftHand  -0.0192693 6.92287 1.20958
RightShoulder  -1.07717 -6.32664 31.5973
RightArm  23.1634 -5.84015 45.7787
RightForeArm  23.0165 12.9923 7.34666
RightHand  0.430565 1.46259 7.78778
LeftUpLeg  -11.0425 7.65977 -8.90594
LeftLeg  21.3793 3.29144 1.22589
LeftFoot  -8.61482 -0.0192256 2.99527
LeftToes  -3.96543e-010 8.93632e-011 -2.58531e-011
43
root  69.38 38.0872 4.47929 -44.5861 -79.3491 40.762
RightUpLeg  -9.15139 5.54903 -13.6606
RightLeg  58.2643 3.29094 5.25992
RightFoot  -1.13218 -0.859631 9.49578
RightToes  -1.74624e-010 0 -3.6325e-017
Spine  9.09129 0.488094 -6.05382
Spine1  3.61428 0.443195 -5.11017
HEad  -6.58161 -4.37662 -1.88467
LeftShoulder1  -0.458731 4.66644 -33.3063
LeftArm  -1.26057 -0.0136191 -40.247
LeftForeArm  33.334 -9.57971 -9.03582
LeftHand  -0.0255771 7.55258 0.770141
RightShoulder  -1.13104 -6.46828 31.6089
RightArm  24.8804 -7.31813 45.6291
RightForeArm  15.5319 14.5223 7.07586
RightHand  0.0115593 5.20651 -0.469327
LeftUpLeg  -8.7393 6.87322 -8.46709
LeftLeg  20.4014 4.20811 0.898832
LeftFoot  -9.6831 0.0158508 2.8937
LeftToes  -3.96543e-010 8.93632e-011 -2.58531e-011
44
root  68.5244 38.1928 4.8214 -45.2867 -79.9479 41.6806
RightUpLeg  -13.177 5.71914 -12.924
RightLeg  57.9085 3.6424 5.8181
RightFoot  -1.96825 -0.804854 9.62535
RightToes  -1.74624e-010 0 -3.6325e-017
Spine  8.73576 0.211035 -6.83722
Spine1  3.51528 -0.0132911 -4.43195
HEad  -6.97069 -5.04898 -1.5781
LeftShoulder1  -0.511055 4.79641 -33.3963
LeftArm  1.05774 -3.13328 -40.6195
LeftForeArm  29.8876 -12.2484 -8.30087
LeftHand  -0.0157653 6.76301 1.32866
RightShoulder  -1.09848 -6.38305 31.5909
RightArm  27.1403 -8.55926 45.3932
RightForeArm  12.8373 16.1331 6.569
RightHand  -0.0888352 6.09889 -1.35975
LeftUpLeg  -6.91498 6.47026 -8.06011
LeftLeg  19.4865 5.08741 0.460156
LeftFoot  -10.8945 0.0558548 2.51689
LeftToes  -3.96543e-010 8.93632e-011 -2.58531e-011
45
root  67.6453 38.3107 5.16923 -44.8845 -80.6191 41.1715
RightUpLeg  -16.0462 5.64534 -11.5889
RightLeg  54.504 3.05266 4.21802
RightFoot  -3.44575 -0.666757 9.29987
RightToes  -1.74624e-010 0 -3.6325e-017
Spine  8.15614 -0.247129 -7.30358
Spine1  4.12007 -0.563617 -3.56538
HEad  -7.61126 -5.11951 -1.21906
LeftShoulder1  -0.540527 4.88067 -33.0917
LeftArm  3.65419 -6.04024 -41.2175
LeftForeArm  25.1536 -15.0053 -7.28895
LeftHand  0.00950701 7.73464 2.12507
RightShoulder  -0.984941 -6.10253 31.3202
RightArm  28.4552 -9.0663 45.759
RightForeArm  13.3189 16.6686 6.39851
RightHand  -0.0518014 4.46105 0.191498
LeftUpLeg  -4.57849 6.28926 -7.49541
LeftLeg  18.1546 5.8305 0.0680884
LeftFoot  -11.8868 0.0832979 2.45227
LeftToes  -3.96543e-010 8.93632e-011 -2.58531e-011
46
root  66.7782 38.411 5.53032 -42.8994 -81.1057 38.9425
RightUpLeg  -17.7701 4.41632 -10.2092
RightLeg  48.3281 2.22321 2.36264
RightFoot  -4.79357 -0.538435 8.83392
RightToes  -1.74624e-010 0 -3.6325e-017
Spine  8.11144 -0.481079 -7.21512
Spine1  4.37679 -0.852206 -2.72719
HEad  -8.10102 -5.8651 -1.08403
LeftShoulder1  -0.402414 4.53878 -32.7529
LeftArm  2.80959 -9.23232 -42.2579
LeftForeArm  25.0135 -16.0849 -6.45615
LeftHand  -0.0323945 5.92934 0.356342
RightShoulder  -1.02693 -6.21375 31.3268
RightArm  29.459 -9.52365 45.5775
RightForeArm  17.9337 17.5985 5.76545
RightHand  0.36636 1.22013 6.96475
LeftUpLeg  -2.1368 6.02525 -7.09636
LeftLeg  16.8836 6.18154 -0.087268
LeftFoot  -12.7057 0.106747 2.56277
LeftToes  -3.96543e-010 8.93632e-011 -2.58531e-011
47
root  65.8731 38.4949 5.86852 -41.1042 -81.5947 37.0541
RightUpLeg  -18.6601 3.33244 -8.53046
RightLeg  39.8672 0.984745 0.628097
RightFoot  -4.71771 -0.496825 8.01784
RightToes  -1.74624e-010 0 -3.6325e-017
Spine  8.64223 -0.831103 -7.43334
Spine1  3.50877 -1.37442 -1.40182
HEad  -7.64169 -6.67938 -1.17504
LeftShoulder1  -0.413014 4.56963 -32.6169
LeftArm  5.3633 -11.5471 -42.5188
LeftForeArm  21.5682 -17.9324 -5.76905
LeftHand  -0.0107837 6.71392 1.99762
RightShoulder  -1.03656 -6.23298 31.3907
RightArm  30.3542 -9.62201 45.3072
RightForeArm  12.8006 17.3567 6.19435
RightHand  0.120297 5.05684 1.13048
LeftUpLeg  0.29424 5.9436 -6.78359
LeftLeg  15.3422 6.54755 -0.179488
LeftFoot  -13.3237 0.12672 2.6849
LeftToes  -3.96543e-010 8.93632e-011 -2.58531e-011
48
root  64.9703 38.4661 6.2053 -43.9503 -82.1725 40.0929
RightUpLeg  -19.3386 2.02687 -7.18604
RightLeg  30.0412 -0.400388 -0.471613
RightFoot  -4.81356 -0.500431 8.18847
RightToes  -1.74624e-010 0 -3.6325e-017
Spine  9.95189 -0.852674 -7.71845
Spine1  1.22148 -1.49149 -0.616131
HEad  -6.97495 -6.6927 -1.13438
LeftShoulder1  -0.394391 4.52014 -32.6205
LeftArm  8.37902 -13.0791 -42.4838
LeftForeArm  18.0425 -19.8717 -5.06251
LeftHand  0.0183065 7.1423 3.48785
RightShoulder  -1.19704 -6.62635 31.8003
RightArm  30.7714 -9.50407 44.6099
RightForeArm  15.9789 16.9709 6.30573
RightHand  0.217817 1.72325 3.97929
LeftUpLeg  2.1973 5.82346 -7.12601
LeftLeg  14.283 7.51783 -0.0763521
LeftFoot  -14.1475 0.158402 3.00025
LeftToes  -3.96543e-010 8.93632e-011 -2.58531e-011
